# xmcd
#
# Track frame offsets:
#	150
#	86359
#	155360
#
# Disc length: 2911 seconds
#
# Revision: 0
# Processed by: cddbd v1.5.1PL0 Copyright (c) Steve Scherf et al.
# Submitted via: dBpowerAMP V4.0
#
DISCID=140b5d03
DTITLE=diane - meditation
DYEAR=1900
DGENRE=
TTITLE0=intro
TTITLE1=start
TTITLE2=deepen
EXTD=
EXTT0=
EXTT1=
EXTT2=
PLAYORDER=
